<svg xmlns="http://www.w3.org/2000/svg" viewBox="0 0 100 100">
  <path d="M49.33 11c-17.53 0-16.43 7.53-16.43 7.53l.02 7.78h16.7v2.37H24.68s-11.13-1.24-11.13 16.26c0 17.5 9.71 16.88 9.71 16.88h5.8v-8.13s-.32-9.72 9.62-9.72h16.53s9.29.15 9.29-8.95v-15c0 0 1.4-8.94-15.18-8.94M38.5 17.32a3.01 3.01 0 0 1 3.02 3.02c0 1.67-1.35 3.02-3.02 3.02-1.66 0-3.01-1.35-3.01-3.02 0-1.67 1.35-3.02 3.01-3.02" fill="#387EB8"/>
  <path d="M50.68 88.72c17.53 0 16.43-7.53 16.43-7.53l-.02-7.78h-16.7v-2.37h24.93s11.13 1.24 11.13-16.26c0-17.5-9.71-16.88-9.71-16.88h-5.8v8.13s.32 9.72-9.62 9.72H44.8s-9.29-.15-9.29 8.95v15c0 0-1.4 8.94 15.18 8.94m10.82-6.32a3.01 3.01 0 0 1-3.02-3.02c0-1.67 1.35-3.02 3.02-3.02 1.66 0 3.01 1.35 3.01 3.02 0 1.67-1.35 3.02-3.01 3.02" fill="#FFD43B"/>
</svg> 